<?xml version="1.0" standalone="no"?>
<!DOCTYPE svg PUBLIC "-//W3C//DTD SVG 20010904//EN"
 "http://www.w3.org/TR/2001/REC-SVG-20010904/DTD/svg10.dtd">
<svg version="1.0" xmlns="http://www.w3.org/2000/svg"
 width="1200.000000pt" height="1200.000000pt" viewBox="0 0 1200.000000 1200.000000"
 preserveAspectRatio="xMidYMid meet">

<g transform="translate(0.000000,1200.000000) scale(0.100000,-0.100000)"
fill="#000000" stroke="none">
<path d="M1730 6655 l0 -85 110 0 110 0 0 -430 0 -430 -115 0 -115 0 0 -85 0
-85 338 0 338 0 0 85 0 85 -123 0 -123 0 0 430 0 430 119 0 119 0 0 85 0 85
-329 0 -329 0 0 -85z"/>
<path d="M7439 6210 c-1 -291 -2 -543 -2 -560 0 -16 1 -48 2 -70 l1 -40 105 0
105 0 0 250 0 250 123 0 c245 1 369 56 438 196 21 42 24 63 24 149 0 123 -23
181 -96 250 -95 89 -169 105 -481 105 l-218 0 -1 -530z m464 336 c39 -8 84
-42 103 -78 23 -44 20 -131 -6 -172 -36 -59 -87 -76 -228 -76 l-122 0 0 164
c0 147 2 165 17 168 25 5 203 0 236 -6z"/>
<path d="M6808 6642 l-118 -15 0 -51 c0 -28 -3 -75 -6 -103 l-7 -53 -87 0 -87
0 -7 -46 c-3 -26 -6 -64 -6 -85 l0 -39 88 0 c49 0 91 -2 93 -4 2 -2 1 -76 -2
-163 -13 -328 24 -463 144 -525 83 -42 241 -35 348 17 93 44 91 41 67 121 -12
38 -22 70 -23 72 -1 1 -32 -14 -69 -33 -53 -28 -79 -35 -122 -35 -48 0 -60 4
-84 28 -42 43 -53 98 -51 262 1 80 3 154 5 165 3 11 5 37 5 58 l1 37 145 0
145 0 0 85 0 85 -145 0 -144 0 6 83 c3 45 12 97 19 116 8 19 13 35 12 36 -2 0
-56 -6 -120 -13z"/>
<path d="M2895 6431 c-44 -11 -71 -27 -94 -57 l-21 -27 0 37 0 36 -90 0 -90 0
0 -440 0 -440 89 0 90 0 3 328 c3 309 4 329 24 362 26 45 67 69 91 54 40 -25
43 -47 43 -401 l0 -343 85 0 85 0 0 293 c0 161 5 312 11 336 17 75 72 131 113
115 31 -12 36 -66 36 -405 l0 -339 90 0 91 0 -3 388 c-3 354 -5 390 -22 424
-49 100 -212 114 -300 26 -40 -40 -41 -40 -67 4 -21 38 -107 63 -164 49z"/>
<path d="M3993 6430 c-61 -13 -103 -37 -150 -89 l-43 -46 0 63 0 62 -105 0
-105 0 2 -422 c1 -233 3 -503 6 -600 l4 -178 104 0 104 0 0 199 0 200 49 -34
c153 -102 373 -58 472 96 53 83 71 158 73 294 1 170 -33 275 -118 363 -51 54
-94 77 -171 91 -65 12 -63 12 -122 1z m112 -194 c75 -57 110 -198 86 -342 -21
-122 -74 -186 -168 -200 -61 -9 -115 9 -152 51 -44 50 -56 103 -56 240 0 104
3 127 23 170 42 91 83 117 174 112 43 -2 65 -10 93 -31z"/>
<path d="M4840 6430 c-96 -15 -201 -62 -243 -107 -16 -19 -15 -22 37 -79 l54
-59 44 32 c58 41 122 57 209 51 84 -6 114 -25 147 -88 38 -75 37 -76 -89 -84
-261 -17 -413 -98 -455 -244 -37 -126 16 -241 136 -296 37 -17 65 -21 155 -21
125 1 158 11 224 70 l41 37 0 -51 0 -51 111 0 110 0 -3 324 -3 323 -35 69
c-59 115 -149 166 -315 177 -38 3 -95 1 -125 -3z m272 -515 c-6 -54 -32 -120
-63 -158 -53 -65 -194 -87 -263 -41 -39 25 -52 85 -29 131 37 74 113 103 263
100 l95 -2 -3 -30z"/>
<path d="M5998 6426 c-61 -16 -119 -57 -155 -109 l-28 -40 -3 71 -3 72 -109 0
-110 0 0 -440 0 -440 110 0 110 0 0 258 c0 282 6 321 55 385 78 103 277 103
325 0 8 -18 18 -33 22 -33 13 0 100 181 94 195 -9 23 -98 69 -160 82 -74 15
-88 15 -148 -1z"/>
<path d="M8679 6430 c-31 -5 -80 -18 -109 -29 -55 -21 -150 -80 -150 -93 0 -5
24 -34 54 -65 l54 -58 45 32 c57 41 121 57 208 51 84 -6 114 -25 147 -88 38
-75 37 -76 -89 -84 -120 -8 -234 -33 -298 -65 -213 -109 -225 -381 -22 -475
38 -17 65 -21 156 -21 125 1 158 11 224 70 l41 37 0 -51 0 -51 111 0 110 0 -3
324 -3 323 -35 69 c-59 115 -149 166 -315 177 -38 3 -95 1 -126 -3z m273 -515
c-6 -54 -32 -120 -63 -158 -53 -65 -194 -87 -263 -41 -39 25 -52 85 -29 131
37 74 113 103 263 100 l95 -2 -3 -30z"/>
<path d="M9777 6429 c-56 -13 -95 -36 -149 -86 l-48 -46 0 62 0 61 -105 0
-105 0 0 -440 0 -440 105 0 105 0 0 283 c0 262 2 285 21 327 11 24 28 53 37
63 29 32 92 59 140 59 55 0 89 -23 117 -78 18 -36 20 -63 23 -346 l4 -308 104
0 104 0 0 283 c0 155 -5 311 -10 347 -20 124 -90 222 -177 248 -60 17 -125 22
-166 11z"/>
</g>
</svg>
